<?xml version="1.0" standalone="no"?><!DOCTYPE svg PUBLIC "-//W3C//DTD SVG 1.1//EN" "http://www.w3.org/Graphics/SVG/1.1/DTD/svg11.dtd"><svg t="1701836886204" class="icon" viewBox="0 0 1024 1024" version="1.1" xmlns="http://www.w3.org/2000/svg" p-id="5118" xmlns:xlink="http://www.w3.org/1999/xlink" width="200" height="200"><path d="M597.333333 85.333333l256 256v512a85.333333 85.333333 0 0 1-85.333333 85.333334H256a85.333333 85.333333 0 0 1-85.333333-85.333334V170.666667a85.333333 85.333333 0 0 1 85.333333-85.333334h341.333333z m-42.666666 85.333334H256v682.666666h512V384h-213.333333V170.666667z m-10.666667 576V810.666667h-64v-64h64zM512 426.666667a128 128 0 0 1 128 128c0 80.213333-96 87.893333-96 160h-64c0-104.106667 96-96 96-160a64 64 0 0 0-128 0H384a128 128 0 0 1 128-128z" fill="#000000" p-id="5119"></path></svg>